<svg width="1920" height="1080" viewBox="0 0 1920 1080" fill="none" xmlns="http://www.w3.org/2000/svg">
<g clip-path="url(#clip0_57461_2223)">
<rect width="1920" height="1094" transform="translate(0 -7)" fill="#4D5EF8"/>
<path d="M1458.04 301.719C1444.88 197.738 1402.97 88.9199 1300.81 28.1199C1245.05 -5.0437 1201.76 -12.6436 1142.88 -8.49817C1010.24 -0.207258 940.626 75.1016 892.833 170.447C880.365 194.974 875.517 188.41 869.975 169.41C846.772 86.1551 802.442 6.01084 701.315 -15.0619C551.702 -45.8073 456.115 22.2465 387.196 156.974C377.846 175.283 375.075 182.191 366.763 160.428C307.195 -0.208858 95.9357 3.59173 -12.4645 76.8281C-181.125 190.483 -222.684 443.701 -221.992 642.683C-221.299 821.628 -162.77 1095.92 69.2691 1086.59C170.05 1082.45 269.446 1011.63 310.659 911.448C318.624 892.448 322.088 874.137 328.322 901.428C396.894 1208.88 783.048 1132.19 857.161 907.992C867.898 875.864 874.131 882.773 881.75 907.992C921.232 1035.46 1064.61 1116.99 1194.48 1085.9C1467.73 1020.96 1502.37 650.628 1458.38 301.719H1458.04Z" fill="#99CEFF"/>
<path d="M229.392 400.304H248.58L284.148 491.876H284.772L320.34 400.304H339.528V512H326.424V441.02L327.048 419.804H326.424L289.92 512H279L242.496 419.804H241.872L242.496 441.02V512H229.392V400.304ZM385.012 514.496C379.188 514.496 373.988 513.352 369.412 511.064C364.836 508.776 361.3 505.656 358.804 501.704C356.308 497.648 355.06 493.072 355.06 487.976C355.06 479.552 358.232 473 364.576 468.32C370.92 463.536 378.928 461.144 388.6 461.144C393.384 461.144 397.804 461.664 401.86 462.704C406.02 463.744 409.192 464.94 411.376 466.292V461.456C411.376 455.528 409.296 450.796 405.136 447.26C400.976 443.62 395.724 441.8 389.38 441.8C384.908 441.8 380.8 442.788 377.056 444.764C373.312 446.636 370.348 449.288 368.164 452.72L358.18 445.232C361.3 440.448 365.564 436.704 370.972 434C376.484 431.296 382.568 429.944 389.224 429.944C400.04 429.944 408.516 432.804 414.652 438.524C420.892 444.14 424.012 451.836 424.012 461.612V512H411.376V500.612H410.752C408.464 504.46 405.032 507.736 400.456 510.44C395.88 513.144 390.732 514.496 385.012 514.496ZM386.26 502.796C390.732 502.796 394.892 501.652 398.74 499.364C402.588 497.076 405.656 494.008 407.944 490.16C410.232 486.312 411.376 482.1 411.376 477.524C408.88 475.86 405.812 474.508 402.172 473.468C398.532 472.428 394.684 471.908 390.628 471.908C383.348 471.908 377.836 473.416 374.092 476.432C370.452 479.448 368.632 483.348 368.632 488.132C368.632 492.5 370.296 496.036 373.624 498.74C376.952 501.444 381.164 502.796 386.26 502.796ZM471.511 513.248C468.287 513.248 465.271 512.728 462.463 511.688C459.759 510.648 457.471 509.244 455.599 507.476C453.519 505.5 451.959 503.212 450.919 500.612C449.879 498.012 449.359 494.84 449.359 491.096V444.452H435.475V432.44H449.359V409.976H462.619V432.44H481.963V444.452H462.619V487.82C462.619 492.188 463.451 495.412 465.115 497.492C467.091 499.78 469.951 500.924 473.695 500.924C476.711 500.924 479.623 500.04 482.431 498.272V511.22C480.871 511.948 479.259 512.468 477.595 512.78C476.035 513.092 474.007 513.248 471.511 513.248ZM529.972 514.496C522.38 514.496 515.568 512.676 509.536 509.036C503.504 505.396 498.772 500.404 495.34 494.06C492.012 487.612 490.348 480.384 490.348 472.376C490.348 464.68 491.908 457.608 495.028 451.16C498.252 444.712 502.776 439.564 508.6 435.716C514.424 431.868 521.184 429.944 528.88 429.944C536.68 429.944 543.44 431.712 549.16 435.248C554.88 438.68 559.248 443.464 562.264 449.6C565.384 455.736 566.944 462.756 566.944 470.66C566.944 472.22 566.788 473.572 566.476 474.716L503.608 474.716C503.92 480.748 505.376 485.844 507.976 490.004C510.576 494.164 513.852 497.284 517.804 499.364C521.86 501.444 526.072 502.484 530.44 502.484C540.632 502.484 548.484 497.7 553.996 488.132L565.228 493.592C561.796 500.04 557.116 505.136 551.188 508.88C545.364 512.624 538.292 514.496 529.972 514.496ZM552.904 463.796C552.696 460.468 551.76 457.14 550.096 453.812C548.432 450.484 545.78 447.676 542.14 445.388C538.604 443.1 534.132 441.956 528.724 441.956C522.484 441.956 517.18 443.984 512.812 448.04C508.548 451.992 505.74 457.244 504.388 463.796H552.904ZM582.463 432.44H595.099V445.232H595.723C597.283 440.864 600.299 437.276 604.771 434.468C609.243 431.556 613.923 430.1 618.811 430.1C622.451 430.1 625.571 430.62 628.171 431.66V446.012C624.843 444.348 621.099 443.516 616.939 443.516C613.091 443.516 609.555 444.608 606.331 446.792C603.107 448.976 600.507 451.94 598.531 455.684C596.659 459.324 595.723 463.276 595.723 467.54V512H582.463V432.44ZM648.763 417.776C646.163 417.776 643.927 416.84 642.055 414.968C640.183 413.096 639.247 410.86 639.247 408.26C639.247 405.66 640.183 403.476 642.055 401.708C643.927 399.836 646.163 398.9 648.763 398.9C651.363 398.9 653.599 399.836 655.471 401.708C657.343 403.476 658.279 405.66 658.279 408.26C658.279 410.86 657.343 413.096 655.471 414.968C653.703 416.84 651.467 417.776 648.763 417.776ZM642.211 432.44H655.315V512H642.211V432.44ZM700.82 514.496C694.996 514.496 689.796 513.352 685.22 511.064C680.644 508.776 677.108 505.656 674.612 501.704C672.116 497.648 670.868 493.072 670.868 487.976C670.868 479.552 674.04 473 680.384 468.32C686.728 463.536 694.736 461.144 704.408 461.144C709.192 461.144 713.612 461.664 717.668 462.704C721.828 463.744 725 464.94 727.184 466.292V461.456C727.184 455.528 725.104 450.796 720.944 447.26C716.784 443.62 711.532 441.8 705.188 441.8C700.716 441.8 696.608 442.788 692.864 444.764C689.12 446.636 686.156 449.288 683.972 452.72L673.988 445.232C677.108 440.448 681.372 436.704 686.78 434C692.292 431.296 698.376 429.944 705.032 429.944C715.848 429.944 724.324 432.804 730.46 438.524C736.7 444.14 739.82 451.836 739.82 461.612V512H727.184V500.612H726.56C724.272 504.46 720.84 507.736 716.264 510.44C711.688 513.144 706.54 514.496 700.82 514.496ZM702.068 502.796C706.54 502.796 710.7 501.652 714.548 499.364C718.396 497.076 721.464 494.008 723.752 490.16C726.04 486.312 727.184 482.1 727.184 477.524C724.688 475.86 721.62 474.508 717.98 473.468C714.34 472.428 710.492 471.908 706.436 471.908C699.156 471.908 693.644 473.416 689.9 476.432C686.26 479.448 684.44 483.348 684.44 488.132C684.44 492.5 686.104 496.036 689.432 498.74C692.76 501.444 696.972 502.796 702.068 502.796ZM758.267 400.304H771.527V512H758.267V400.304ZM858.32 514.496C853.848 514.496 849.272 513.56 844.592 511.688C839.912 509.816 835.648 506.904 831.8 502.952C828.056 498.896 825.352 493.852 823.688 487.82L835.7 482.828C837.364 488.86 840.172 493.54 844.124 496.868C848.18 500.196 852.912 501.86 858.32 501.86C862.272 501.86 865.964 501.028 869.396 499.364C872.828 497.596 875.532 495.204 877.508 492.188C879.588 489.068 880.628 485.636 880.628 481.892C880.628 478.252 879.588 474.924 877.508 471.908C875.532 468.892 872.776 466.552 869.24 464.888C865.808 463.12 862.012 462.236 857.852 462.236H848.648V449.912H856.916C862.636 449.912 867.42 448.3 871.268 445.076C875.116 441.748 877.04 437.38 877.04 431.972C877.04 426.98 875.168 422.976 871.424 419.96C867.68 416.944 863.052 415.436 857.54 415.436C852.132 415.436 847.868 416.84 844.748 419.648C841.732 422.456 839.548 425.888 838.196 429.944L826.028 424.796C827.9 419.18 831.488 414.136 836.792 409.664C842.2 405.088 849.116 402.8 857.54 402.8C863.78 402.8 869.396 404.048 874.388 406.544C879.38 409.04 883.28 412.524 886.088 416.996C889 421.468 890.456 426.46 890.456 431.972C890.456 437.484 889.052 442.164 886.244 446.012C883.436 449.86 879.952 452.876 875.792 455.06V455.684C881.096 457.868 885.464 461.248 888.896 465.824C892.328 470.296 894.044 475.6 894.044 481.736C894.044 487.976 892.432 493.592 889.208 498.584C886.088 503.576 881.772 507.476 876.26 510.284C870.852 513.092 864.872 514.496 858.32 514.496ZM216.824 562.304H250.52C261.96 562.304 271.944 564.696 280.472 569.48C289 574.16 295.552 580.712 300.128 589.136C304.704 597.56 306.992 607.232 306.992 618.152C306.992 629.072 304.704 638.744 300.128 647.168C295.552 655.592 289 662.196 280.472 666.98C271.944 671.66 261.96 674 250.52 674H216.824V562.304ZM250.52 661.364C263.728 661.364 274.18 657.568 281.876 649.976C289.676 642.384 293.576 631.776 293.576 618.152C293.576 604.528 289.676 593.92 281.876 586.328C274.18 578.736 263.728 574.94 250.52 574.94H229.928V661.364H250.52ZM356.986 676.496C349.394 676.496 342.582 674.676 336.55 671.036C330.518 667.396 325.786 662.404 322.354 656.06C319.026 649.612 317.362 642.384 317.362 634.376C317.362 626.68 318.922 619.608 322.042 613.16C325.266 606.712 329.79 601.564 335.614 597.716C341.438 593.868 348.198 591.944 355.894 591.944C363.694 591.944 370.454 593.712 376.174 597.248C381.894 600.68 386.262 605.464 389.278 611.6C392.398 617.736 393.958 624.756 393.958 632.66C393.958 634.22 393.802 635.572 393.49 636.716H330.622C330.934 642.748 332.39 647.844 334.99 652.004C337.59 656.164 340.866 659.284 344.818 661.364C348.874 663.444 353.086 664.484 357.454 664.484C367.646 664.484 375.498 659.7 381.01 650.132L392.242 655.592C388.81 662.04 384.13 667.136 378.202 670.88C372.378 674.624 365.306 676.496 356.986 676.496ZM379.918 625.796C379.71 622.468 378.774 619.14 377.11 615.812C375.446 612.484 372.794 609.676 369.154 607.388C365.618 605.1 361.146 603.956 355.738 603.956C349.498 603.956 344.194 605.984 339.826 610.04C335.562 613.992 332.754 619.244 331.402 625.796H379.918ZM438.006 676.496C429.478 676.496 422.354 674.52 416.634 670.568C410.914 666.512 406.858 661.364 404.466 655.124L416.322 649.82C418.298 654.604 421.21 658.296 425.058 660.896C429.01 663.496 433.326 664.796 438.006 664.796C442.998 664.796 447.262 663.808 450.798 661.832C454.334 659.752 456.102 656.84 456.102 653.096C456.102 649.768 454.698 647.116 451.89 645.14C449.082 643.06 444.662 641.292 438.63 639.836L428.958 637.34C422.614 635.78 417.414 633.128 413.358 629.384C409.302 625.64 407.274 620.804 407.274 614.876C407.274 610.3 408.626 606.296 411.33 602.864C414.138 599.328 417.83 596.624 422.406 594.752C426.982 592.88 431.922 591.944 437.226 591.944C444.194 591.944 450.382 593.452 455.79 596.468C461.302 599.484 465.202 603.696 467.49 609.104L455.946 614.408C452.41 607.336 446.118 603.8 437.07 603.8C432.702 603.8 428.854 604.84 425.526 606.92C422.302 608.896 420.69 611.444 420.69 614.564C420.69 617.476 421.834 619.868 424.122 621.74C426.41 623.508 429.842 624.964 434.418 626.108L445.962 629.072C453.762 631.048 459.638 634.012 463.59 637.964C467.542 641.812 469.518 646.544 469.518 652.16C469.518 657.048 468.114 661.364 465.306 665.108C462.498 668.748 458.702 671.556 453.918 673.532C449.134 675.508 443.83 676.496 438.006 676.496ZM491.011 579.776C488.411 579.776 486.175 578.84 484.303 576.968C482.431 575.096 481.495 572.86 481.495 570.26C481.495 567.66 482.431 565.476 484.303 563.708C486.175 561.836 488.411 560.9 491.011 560.9C493.611 560.9 495.847 561.836 497.719 563.708C499.591 565.476 500.527 567.66 500.527 570.26C500.527 572.86 499.591 575.096 497.719 576.968C495.951 578.84 493.715 579.776 491.011 579.776ZM484.459 594.44H497.563L497.563 674H484.459L484.459 594.44ZM552.585 710.192C543.225 710.192 535.477 708.008 529.341 703.64C523.309 699.272 519.253 694.02 517.173 687.884L529.185 682.736C530.953 687.312 533.865 691.004 537.921 693.812C542.081 696.724 546.969 698.18 552.585 698.18C560.801 698.18 567.145 695.788 571.617 691.004C576.193 686.22 578.481 679.46 578.481 670.724V661.832H577.857C575.257 665.888 571.565 669.216 566.781 671.816C562.101 674.312 556.745 675.56 550.713 675.56C543.849 675.56 537.557 673.792 531.837 670.256C526.221 666.72 521.749 661.78 518.421 655.436C515.093 649.092 513.429 641.864 513.429 633.752C513.429 625.744 515.093 618.568 518.421 612.224C521.749 605.776 526.221 600.784 531.837 597.248C537.557 593.712 543.849 591.944 550.713 591.944C556.745 591.944 562.101 593.244 566.781 595.844C571.565 598.34 575.257 601.668 577.857 605.828H578.481V594.44H591.117V670.88C591.117 683.672 587.581 693.396 580.509 700.052C573.437 706.812 564.129 710.192 552.585 710.192ZM552.585 663.548C557.369 663.548 561.685 662.352 565.533 659.96C569.485 657.568 572.605 654.136 574.893 649.664C577.285 645.192 578.481 639.888 578.481 633.752C578.481 627.512 577.285 622.156 574.893 617.684C572.605 613.212 569.485 609.832 565.533 607.544C561.685 605.152 557.369 603.956 552.585 603.956C547.801 603.956 543.433 605.152 539.481 607.544C535.529 609.936 532.357 613.368 529.965 617.84C527.677 622.312 526.533 627.616 526.533 633.752C526.533 639.888 527.677 645.244 529.965 649.82C532.357 654.292 535.529 657.724 539.481 660.116C543.433 662.404 547.801 663.548 552.585 663.548ZM610.723 594.44H623.359V606.14H623.983C626.167 602.188 629.651 598.86 634.435 596.156C639.219 593.348 644.315 591.944 649.723 591.944C659.291 591.944 666.571 594.752 671.563 600.368C676.659 605.88 679.207 613.42 679.207 622.988V674H665.947V625.016C665.947 617.632 664.179 612.276 660.643 608.948C657.107 605.62 652.271 603.956 646.135 603.956C641.871 603.956 638.023 605.152 634.591 607.544C631.263 609.936 628.663 613.108 626.791 617.06C624.919 620.908 623.983 624.964 623.983 629.228V674H610.723V594.44ZM737.078 562.304H750.182V621.116H750.806L801.194 562.304H818.198V562.928L776.858 610.664L821.162 673.376V674H805.094L767.966 620.804L750.182 641.24V674H737.078V562.304ZM839.726 579.776C837.126 579.776 834.89 578.84 833.018 576.968C831.146 575.096 830.21 572.86 830.21 570.26C830.21 567.66 831.146 565.476 833.018 563.708C834.89 561.836 837.126 560.9 839.726 560.9C842.326 560.9 844.562 561.836 846.434 563.708C848.306 565.476 849.242 567.66 849.242 570.26C849.242 572.86 848.306 575.096 846.434 576.968C844.666 578.84 842.43 579.776 839.726 579.776ZM833.174 594.44H846.278V674H833.174V594.44ZM896.931 675.248C893.707 675.248 890.691 674.728 887.883 673.688C885.179 672.648 882.891 671.244 881.019 669.476C878.939 667.5 877.379 665.212 876.339 662.612C875.299 660.012 874.779 656.84 874.779 653.096V606.452H860.895V594.44H874.779V571.976H888.039V594.44H907.383V606.452H888.039V649.82C888.039 654.188 888.871 657.412 890.535 659.492C892.511 661.78 895.371 662.924 899.115 662.924C902.131 662.924 905.043 662.04 907.851 660.272V673.22C906.291 673.948 904.679 674.468 903.015 674.78C901.455 675.092 899.427 675.248 896.931 675.248Z" fill="#383700"/>
<g clip-path="url(#clip1_57461_2223)">
<rect width="802" height="1208" transform="translate(1118 -64)" fill="#ADFE00"/>
<g clip-path="url(#clip2_57461_2223)">
<path d="M1896.66 927.215C1846.11 1202.28 1603.76 1167.48 1376.01 1160.46C1270.98 1157.37 953.933 1120.89 1076.37 940.126C1121.02 874.447 1247.39 835.713 1343.44 802.031C1415.61 777.05 1372.64 770.034 1343.44 768.069C1215.38 759.648 1015.71 745.895 1074.69 580.012C1114.28 468.301 1279.97 400.656 1403.25 373.711C1463.35 360.519 1428.81 350.414 1409.43 343.678C1339.79 319.82 1267.61 301.576 1249.92 227.195C1229.98 144.394 1277.44 59.3473 1326.59 22.578C1447.06 -67.5208 1726.48 -104.009 1852.29 -6.0512C1951.7 71.4169 1943.84 236.738 1945.24 348.73C1947.49 542.12 1931.77 736.913 1896.94 927.776L1896.66 927.215Z" fill="#4F8A03"/>
</g>
<rect x="1699" y="-11" width="253" height="1108" fill="#4F8A03"/>
</g>
</g>
<defs>
<clipPath id="clip0_57461_2223">
<rect width="1920" height="1094" fill="white" transform="translate(0 -7)"/>
</clipPath>
<clipPath id="clip1_57461_2223">
<rect width="802" height="1208" fill="white" transform="translate(1118 -64)"/>
</clipPath>
<clipPath id="clip2_57461_2223">
<rect width="1235" height="908" fill="white" transform="matrix(0 1 1 0 1044 -69)"/>
</clipPath>
</defs>
</svg>
